<svg xmlns="http://www.w3.org/2000/svg" xmlns:xlink="http://www.w3.org/1999/xlink" width="658.745" height="124.202" viewBox="0 0 658.745 124.202">
  <defs>
    <clipPath id="clip-path">
      <rect id="Rectangle_7" data-name="Rectangle 7" width="658.745" height="124.202" fill="none"/>
    </clipPath>
  </defs>
  <g id="Group_3" data-name="Group 3" transform="translate(0 0)">
    <g id="Group_2" data-name="Group 2" transform="translate(0 0)" clip-path="url(#clip-path)">
      <path id="Path_1" data-name="Path 1" d="M289.729,33.372c-5.18,7.8-13.8,13.317-25.747,16.482V124.2H173.065V101.884l11.167-9.76v20.911h68.591V52.005a132.536,132.536,0,0,1-17.554,1.071c-2.262,0-4.476.08-6.666.256a73.167,73.167,0,0,0-44.371,18.593,86.871,86.871,0,0,0-11.167,12.046c-1.183,1.519-2.334,3.093-3.461,4.74a120.932,120.932,0,0,0-14.252,28.648l-7.81,6.842-5.46-1.2a127.675,127.675,0,0,1,18.089-40.295,103.61,103.61,0,0,1,12.893-15.563V6.163h90.917V22.4l-11.159,9.76V17.33H184.232V57.744c14.652-10.447,31.9-15.835,51.038-15.835,2.254,0,4.436-.048,6.563-.144,3.925-.176,7.57-.528,10.991-1.023a71.31,71.31,0,0,0,11.159-2.518c7.626-2.478,13.165-6.147,16.387-10.943,5.244-7.834,3.333-17.258,2.2-21.135l4.548-3.973L292.255,0C292.575.735,299.769,18.233,289.729,33.372ZM38.512,67.257Q34.4,62.1,26.338,58.943l-4.8-1.87q-6.667-2.566-9.424-5.851T9.36,42.213q0-6.439,3.037-9.96c2.03-2.342,5.084-3.5,9.136-3.5q11.7,0,12.518,14.164h8.089q-.48-10.887-5.859-16.331T21.646,21.143c-6.171,0-11.558,1.95-15.267,5.843Q.815,32.849.815,42.677.815,50.986,4.8,55.9T16.73,63.979l4.692,1.87c4.748,1.95,8.057,4.021,9.88,6.2q2.758,3.285,2.75,9.72c0,4.916-1.031,8.553-3.1,10.935s-5.2,3.573-9.416,3.573S14.212,95.1,12,92.708,8.545,86.417,8.305,80.949H0q.228,11.235,5.555,17.09t15.627,5.851c6.866,0,12.246-1.942,15.915-5.8s5.5-9.344,5.5-16.45q0-9.232-4.085-14.388M87.424,22.31V82q0,6.8-3.341,10.535-3.321,3.753-9.176,3.749T65.722,92.6c-2.23-2.47-3.341-6-3.341-10.6V22.31H53.836V82.476a23.123,23.123,0,0,0,2.686,11.231,19.029,19.029,0,0,0,7.5,7.61A21.981,21.981,0,0,0,74.906,104q9.364,0,15.211-5.907t5.851-15.619V22.31Zm23.285,80.757h8.433V22.31h-8.433ZM367.617,46.026V44.659q0-10.515-5.891-16.179t-15.371-5.651c-6.331,0-11.678,2-15.6,6q-5.887,6.019-5.891,18.009V79.75q0,11.894,5.891,17.889t15.6,6c6.475,0,11.551-1.982,15.435-5.939q5.827-5.959,5.827-17.841V62.253H346.243v6.978h13.029V80.206q0,8.009-3.309,11.95T346.355,96.1q-13.141,0-13.149-16.235V47.633q0-17.266,13.149-17.258a12.335,12.335,0,0,1,9.432,3.717q3.489,3.7,3.485,10.567v1.367Zm36.114-22.174,21.494,78.871h-8.809L411.4,82.612H388.3l-5.028,20.111H374.6l21.478-78.871Zm-13.6,51.55h19.424l-9.712-38.976Zm51.318,19.9V23.852h-8.345v78.871H468.2V95.3Zm44.691,0V23.852H477.8v78.871h35.091V95.3Zm71.445-64.019V23.852H522.5v78.871h35.091V95.3H530.723V66.369h23.093V58.832H530.723V31.278Zm40,35.667,13.948,35.779h-8.913L589.586,68.208H576.908v34.516h-8.345V23.852h20.791q10.407,0,15.155,5.483,4.736,5.5,4.74,16.8Q609.25,63.08,597.587,66.945Zm.52-9.776c1.87-2.462,2.8-6.083,2.8-11.031s-.9-8.665-2.694-11.143c-1.783-2.47-4.772-3.717-8.969-3.717H576.908V60.886h12.334c4.037,0,6.994-1.231,8.865-3.717m51.486-33.317-12.23,36.114-12.23-36.114h-9.145l17.258,46.066v32.8h8.233v-32.8l17.266-46.066Z" transform="translate(0 0.002)" fill="#ffff"/>
    </g>
  </g>
</svg>
